<svg xmlns="http://www.w3.org/2000/svg" width="55.621" height="55.764" viewBox="0 0 55.621 55.764">
  <g id="Group_5010" data-name="Group 5010" transform="translate(0.5 0.645)">
    <path id="Path_4155" data-name="Path 4155" d="M1511.231-1228.276a27.4,27.4,0,0,0-27.274-27.454,27.465,27.465,0,0,0-27.347,27.454,27.317,27.317,0,0,0,23.042,26.978v-19.083h-6.934v-7.894h6.934v-6.018c0-6.843,4.078-10.625,10.315-10.625a41.881,41.881,0,0,1,6.113.535v6.719h-3.442c-3.393,0-4.452,2.1-4.452,4.265v5.124h7.574l-1.21,7.894h-6.364v19.083A27.317,27.317,0,0,0,1511.231-1228.276Z" transform="translate(-1456.61 1255.585)" fill="#cdced1" stroke="rgba(0,0,0,0)" stroke-width="1"/>
    <path id="Path_4156" data-name="Path 4156" d="M1486.547-1225.681l1.21-7.894h-7.574v-5.124c0-2.16,1.059-4.265,4.452-4.265h3.442v-6.719a41.881,41.881,0,0,0-6.113-.535c-6.237,0-10.315,3.782-10.315,10.625v6.018h-6.934v7.894h6.934v19.083a27.487,27.487,0,0,0,4.267.332,27.45,27.45,0,0,0,4.267-.332v-19.083Z" transform="translate(-1448.607 1260.885)" fill="#fff" stroke="rgba(0,0,0,0)" stroke-width="1"/>
  </g>
</svg>
